<svg width="296" height="72" viewBox="0 0 296 72" fill="none" xmlns="http://www.w3.org/2000/svg">
<path d="M138.755 32.79C137.367 32.79 136.122 32.5562 135.02 32.0886C133.918 31.5986 133.047 30.9306 132.408 30.0844C131.769 29.216 131.417 28.225 131.35 27.1116H134.458C134.546 28.0246 134.965 28.7706 135.714 29.3496C136.485 29.9285 137.488 30.218 138.722 30.218C139.868 30.218 140.772 29.9619 141.433 29.4498C142.094 28.9376 142.425 28.2918 142.425 27.5124C142.425 26.7108 142.072 26.1207 141.367 25.7421C140.662 25.3413 139.571 24.9516 138.094 24.573C136.75 24.2167 135.648 23.8604 134.788 23.5042C133.951 23.1256 133.224 22.58 132.607 21.8674C132.012 21.1326 131.714 20.1751 131.714 18.9948C131.714 18.0596 131.99 17.2022 132.541 16.4229C133.091 15.6435 133.874 15.0311 134.888 14.5857C135.901 14.1181 137.058 13.8843 138.359 13.8843C140.364 13.8843 141.984 14.3964 143.218 15.4208C144.452 16.4451 145.113 17.848 145.202 19.6295H142.193C142.127 18.6719 141.742 17.9037 141.036 17.3247C140.353 16.7457 139.427 16.4563 138.259 16.4563C137.18 16.4563 136.32 16.6901 135.681 17.1577C135.042 17.6253 134.722 18.2377 134.722 18.9948C134.722 19.5961 134.91 20.0971 135.284 20.4979C135.681 20.8765 136.166 21.1883 136.739 21.4332C137.334 21.6559 138.149 21.912 139.185 22.2015C140.485 22.5578 141.543 22.914 142.359 23.2703C143.174 23.6044 143.868 24.1165 144.441 24.8068C145.036 25.4972 145.345 26.399 145.367 27.5124C145.367 28.5145 145.091 29.4164 144.54 30.218C143.989 31.0197 143.207 31.6543 142.193 32.122C141.202 32.5673 140.056 32.79 138.755 32.79Z" fill="black"/>
<path d="M166.142 22.6357C166.142 23.2147 166.109 23.827 166.043 24.4728H151.564C151.674 26.2765 152.28 27.6906 153.382 28.7149C154.506 29.717 155.861 30.218 157.448 30.218C158.748 30.218 159.828 29.9174 160.688 29.3162C161.569 28.6926 162.186 27.8687 162.539 26.8444H165.778C165.294 28.6036 164.324 30.0399 162.869 31.1533C161.415 32.2444 159.608 32.79 157.448 32.79C155.729 32.79 154.186 32.4003 152.82 31.6209C151.476 30.8415 150.418 29.7393 149.646 28.3141C148.875 26.8667 148.489 25.1965 148.489 23.3037C148.489 21.4109 148.864 19.752 149.613 18.3268C150.363 16.9016 151.41 15.8105 152.754 15.0534C154.12 14.274 155.685 13.8843 157.448 13.8843C159.167 13.8843 160.688 14.2628 162.01 15.02C163.332 15.7771 164.346 16.8237 165.051 18.1598C165.778 19.4736 166.142 20.9656 166.142 22.6357ZM163.035 22.001C163.035 20.8431 162.781 19.8522 162.274 19.0282C161.768 18.182 161.073 17.5474 160.192 17.1243C159.332 16.6789 158.374 16.4563 157.316 16.4563C155.795 16.4563 154.495 16.9462 153.415 17.926C152.357 18.9058 151.751 20.2641 151.597 22.001H163.035Z" fill="black"/>
<path d="M177.584 13.8843C179.149 13.8843 180.515 14.2294 181.683 14.9198C182.873 15.6101 183.755 16.4785 184.328 17.5251V14.1849H187.369V32.8902C187.369 34.5603 187.016 36.0412 186.311 37.3327C185.606 38.6465 184.592 39.6709 183.27 40.4057C181.969 41.1406 180.449 41.508 178.708 41.508C176.328 41.508 174.344 40.9402 172.757 39.8045C171.171 38.6688 170.234 37.1212 169.948 35.1616H172.923C173.253 36.275 173.937 37.1657 174.972 37.8338C176.008 38.5241 177.253 38.8692 178.708 38.8692C180.361 38.8692 181.705 38.3459 182.741 37.2993C183.799 36.2527 184.328 34.783 184.328 32.8902V29.0489C183.733 30.1178 182.851 31.0085 181.683 31.7211C180.515 32.4337 179.149 32.79 177.584 32.79C175.975 32.79 174.51 32.3892 173.187 31.5875C171.887 30.7859 170.862 29.6613 170.113 28.2139C169.364 26.7664 168.989 25.1186 168.989 23.2703C168.989 21.3998 169.364 19.7631 170.113 18.3602C170.862 16.935 171.887 15.8327 173.187 15.0534C174.51 14.274 175.975 13.8843 177.584 13.8843ZM184.328 23.3037C184.328 21.9231 184.052 20.7206 183.501 19.6963C182.95 18.6719 182.201 17.8926 181.253 17.3581C180.328 16.8014 179.303 16.5231 178.179 16.5231C177.055 16.5231 176.03 16.7903 175.105 17.3247C174.179 17.8592 173.441 18.6385 172.89 19.6629C172.339 20.6872 172.063 21.8897 172.063 23.2703C172.063 24.6732 172.339 25.898 172.89 26.9446C173.441 27.9689 174.179 28.7595 175.105 29.3162C176.03 29.8506 177.055 30.1178 178.179 30.1178C179.303 30.1178 180.328 29.8506 181.253 29.3162C182.201 28.7595 182.95 27.9689 183.501 26.9446C184.052 25.898 184.328 24.6844 184.328 23.3037Z" fill="black"/>
<path d="M208.518 14.1849V32.4894H205.51V29.7838C204.937 30.7191 204.133 31.4539 203.097 31.9883C202.083 32.5005 200.959 32.7566 199.725 32.7566C198.315 32.7566 197.047 32.4671 195.924 31.8881C194.8 31.2869 193.907 30.3962 193.246 29.216C192.607 28.0357 192.287 26.5994 192.287 24.907V14.1849H195.262V24.5062C195.262 26.3099 195.714 27.7017 196.618 28.6815C197.521 29.639 198.755 30.1178 200.32 30.1178C201.929 30.1178 203.196 29.6168 204.122 28.6147C205.047 27.6126 205.51 26.1541 205.51 24.239V14.1849H208.518Z" fill="black"/>
<path d="M216.606 17.1577C217.135 16.1111 217.884 15.2983 218.854 14.7193C219.845 14.1404 221.047 13.8509 222.457 13.8509V16.9907H221.664C218.292 16.9907 216.606 18.839 216.606 22.5355V32.4894H213.598V14.1849H216.606V17.1577Z" fill="black"/>
<path d="M227.483 11.2121C226.91 11.2121 226.425 11.0117 226.029 10.6109C225.632 10.21 225.434 9.72012 225.434 9.14115C225.434 8.56217 225.632 8.07227 226.029 7.67144C226.425 7.27062 226.91 7.0702 227.483 7.0702C228.034 7.0702 228.497 7.27062 228.872 7.67144C229.268 8.07227 229.467 8.56217 229.467 9.14115C229.467 9.72012 229.268 10.21 228.872 10.6109C228.497 11.0117 228.034 11.2121 227.483 11.2121ZM228.938 14.1849V32.4894H225.93V14.1849H228.938Z" fill="black"/>
<path d="M232.941 23.2703C232.941 21.3998 233.316 19.7631 234.065 18.3602C234.814 16.935 235.839 15.8327 237.139 15.0534C238.461 14.274 239.938 13.8843 241.569 13.8843C242.979 13.8843 244.291 14.2183 245.503 14.8863C246.715 15.5321 247.64 16.3895 248.28 17.4583V7.77165H251.321V32.4894H248.28V29.0489C247.684 30.1401 246.803 31.0419 245.635 31.7545C244.467 32.4448 243.101 32.79 241.536 32.79C239.927 32.79 238.461 32.3892 237.139 31.5875C235.839 30.7859 234.814 29.6613 234.065 28.2139C233.316 26.7664 232.941 25.1186 232.941 23.2703ZM248.28 23.3037C248.28 21.9231 248.004 20.7206 247.453 19.6963C246.902 18.6719 246.153 17.8926 245.205 17.3581C244.28 16.8014 243.255 16.5231 242.131 16.5231C241.007 16.5231 239.982 16.7903 239.056 17.3247C238.131 17.8592 237.393 18.6385 236.842 19.6629C236.291 20.6872 236.015 21.8897 236.015 23.2703C236.015 24.6732 236.291 25.898 236.842 26.9446C237.393 27.9689 238.131 28.7595 239.056 29.3162C239.982 29.8506 241.007 30.1178 242.131 30.1178C243.255 30.1178 244.28 29.8506 245.205 29.3162C246.153 28.7595 246.902 27.9689 247.453 26.9446C248.004 25.898 248.28 24.6844 248.28 23.3037Z" fill="black"/>
<path d="M255.28 23.2703C255.28 21.3998 255.655 19.7631 256.404 18.3602C257.154 16.935 258.178 15.8327 259.479 15.0534C260.801 14.274 262.267 13.8843 263.875 13.8843C265.462 13.8843 266.84 14.2294 268.008 14.9198C269.176 15.6101 270.046 16.4785 270.619 17.5251V14.1849H273.66V32.4894H270.619V29.0823C270.024 30.1512 269.132 31.0419 267.941 31.7545C266.773 32.4448 265.407 32.79 263.842 32.79C262.234 32.79 260.779 32.3892 259.479 31.5875C258.178 30.7859 257.154 29.6613 256.404 28.2139C255.655 26.7664 255.28 25.1186 255.28 23.2703ZM270.619 23.3037C270.619 21.9231 270.344 20.7206 269.793 19.6963C269.242 18.6719 268.492 17.8926 267.545 17.3581C266.619 16.8014 265.594 16.5231 264.47 16.5231C263.346 16.5231 262.322 16.7903 261.396 17.3247C260.47 17.8592 259.732 18.6385 259.181 19.6629C258.63 20.6872 258.355 21.8897 258.355 23.2703C258.355 24.6732 258.63 25.898 259.181 26.9446C259.732 27.9689 260.47 28.7595 261.396 29.3162C262.322 29.8506 263.346 30.1178 264.47 30.1178C265.594 30.1178 266.619 29.8506 267.545 29.3162C268.492 28.7595 269.242 27.9689 269.793 26.9446C270.344 25.898 270.619 24.6844 270.619 23.3037Z" fill="black"/>
<path d="M277.62 23.2703C277.62 21.3998 277.995 19.7631 278.744 18.3602C279.493 16.935 280.518 15.8327 281.818 15.0534C283.141 14.274 284.617 13.8843 286.248 13.8843C287.659 13.8843 288.97 14.2183 290.182 14.8863C291.394 15.5321 292.32 16.3895 292.959 17.4583V7.77165H296V32.4894H292.959V29.0489C292.364 30.1401 291.482 31.0419 290.314 31.7545C289.146 32.4448 287.78 32.79 286.215 32.79C284.606 32.79 283.141 32.3892 281.818 31.5875C280.518 30.7859 279.493 29.6613 278.744 28.2139C277.995 26.7664 277.62 25.1186 277.62 23.2703ZM292.959 23.3037C292.959 21.9231 292.683 20.7206 292.132 19.6963C291.581 18.6719 290.832 17.8926 289.884 17.3581C288.959 16.8014 287.934 16.5231 286.81 16.5231C285.686 16.5231 284.661 16.7903 283.736 17.3247C282.81 17.8592 282.072 18.6385 281.521 19.6629C280.97 20.6872 280.694 21.8897 280.694 23.2703C280.694 24.6732 280.97 25.898 281.521 26.9446C282.072 27.9689 282.81 28.7595 283.736 29.3162C284.661 29.8506 285.686 30.1178 286.81 30.1178C287.934 30.1178 288.959 29.8506 289.884 29.3162C290.832 28.7595 291.581 27.9689 292.132 26.9446C292.683 25.898 292.959 24.6844 292.959 23.3037Z" fill="black"/>
<path d="M131.218 53.3658C131.218 51.473 131.593 49.8252 132.342 48.4223C133.091 46.9971 134.127 45.8948 135.45 45.1155C136.794 44.3361 138.326 43.9464 140.045 43.9464C142.27 43.9464 144.1 44.4919 145.532 45.5831C146.987 46.6742 147.945 48.1885 148.408 50.1258H145.168C144.86 49.0124 144.254 48.1328 143.35 47.487C142.469 46.8412 141.367 46.5184 140.045 46.5184C138.326 46.5184 136.937 47.1196 135.879 48.3221C134.821 49.5023 134.293 51.1835 134.293 53.3658C134.293 55.5704 134.821 57.2739 135.879 58.4764C136.937 59.6789 138.326 60.2801 140.045 60.2801C141.367 60.2801 142.469 59.9684 143.35 59.3449C144.232 58.7213 144.838 57.8306 145.168 56.6727H148.408C147.923 58.5432 146.954 60.0463 145.499 61.182C144.044 62.2954 142.226 62.8521 140.045 62.8521C138.326 62.8521 136.794 62.4624 135.45 61.683C134.127 60.9036 133.091 59.8014 132.342 58.3762C131.593 56.951 131.218 55.2809 131.218 53.3658Z" fill="black"/>
<path d="M160.323 62.8521C158.626 62.8521 157.083 62.4624 155.695 61.683C154.328 60.9036 153.248 59.8014 152.455 58.3762C151.684 56.9287 151.298 55.2586 151.298 53.3658C151.298 51.4953 151.695 49.8475 152.488 48.4223C153.304 46.9749 154.405 45.8726 155.794 45.1155C157.182 44.3361 158.736 43.9464 160.455 43.9464C162.174 43.9464 163.728 44.3361 165.116 45.1155C166.504 45.8726 167.595 46.9637 168.389 48.3889C169.204 49.8141 169.612 51.473 169.612 53.3658C169.612 55.2586 169.193 56.9287 168.356 58.3762C167.54 59.8014 166.427 60.9036 165.017 61.683C163.606 62.4624 162.042 62.8521 160.323 62.8521ZM160.323 60.1799C161.403 60.1799 162.416 59.9238 163.364 59.4117C164.312 58.8995 165.072 58.1312 165.645 57.1069C166.24 56.0826 166.538 54.8355 166.538 53.3658C166.538 51.8961 166.251 50.6491 165.678 49.6248C165.105 48.6004 164.356 47.8433 163.43 47.3534C162.504 46.8412 161.502 46.5852 160.422 46.5852C159.32 46.5852 158.306 46.8412 157.381 47.3534C156.477 47.8433 155.75 48.6004 155.199 49.6248C154.648 50.6491 154.372 51.8961 154.372 53.3658C154.372 54.8578 154.637 56.116 155.166 57.1403C155.717 58.1646 156.444 58.9329 157.348 59.4451C158.251 59.935 159.243 60.1799 160.323 60.1799Z" fill="black"/>
<path d="M176.575 47.2198C177.104 46.1732 177.854 45.3604 178.823 44.7814C179.815 44.2025 181.016 43.913 182.427 43.913V47.0528H181.633C178.261 47.0528 176.575 48.9011 176.575 52.5976V62.5515H173.567V44.247H176.575V47.2198Z" fill="black"/>
<path d="M188.907 47.6206C189.502 46.574 190.384 45.7056 191.552 45.0153C192.742 44.3027 194.119 43.9464 195.684 43.9464C197.293 43.9464 198.747 44.3361 200.048 45.1155C201.37 45.8948 202.406 46.9971 203.155 48.4223C203.904 49.8252 204.279 51.4619 204.279 53.3324C204.279 55.1807 203.904 56.8285 203.155 58.276C202.406 59.7234 201.37 60.848 200.048 61.6496C198.747 62.4513 197.293 62.8521 195.684 62.8521C194.141 62.8521 192.775 62.5069 191.585 61.8166C190.417 61.104 189.524 60.2244 188.907 59.1778V71.2361H185.899V44.247H188.907V47.6206ZM201.205 53.3324C201.205 51.9518 200.929 50.7493 200.378 49.725C199.827 48.7006 199.078 47.9213 198.13 47.3868C197.205 46.8524 196.18 46.5852 195.056 46.5852C193.954 46.5852 192.929 46.8635 191.982 47.4202C191.056 47.9547 190.307 48.7452 189.734 49.7918C189.183 50.8161 188.907 52.0075 188.907 53.3658C188.907 54.7465 189.183 55.9601 189.734 57.0067C190.307 58.031 191.056 58.8216 191.982 59.3783C192.929 59.9127 193.954 60.1799 195.056 60.1799C196.18 60.1799 197.205 59.9127 198.13 59.3783C199.078 58.8216 199.827 58.031 200.378 57.0067C200.929 55.9601 201.205 54.7353 201.205 53.3324Z" fill="black"/>
<path d="M216.139 62.8521C214.442 62.8521 212.9 62.4624 211.511 61.683C210.145 60.9036 209.065 59.8014 208.272 58.3762C207.5 56.9287 207.115 55.2586 207.115 53.3658C207.115 51.4953 207.511 49.8475 208.305 48.4223C209.12 46.9749 210.222 45.8726 211.611 45.1155C212.999 44.3361 214.553 43.9464 216.272 43.9464C217.991 43.9464 219.544 44.3361 220.933 45.1155C222.321 45.8726 223.412 46.9637 224.205 48.3889C225.021 49.8141 225.429 51.473 225.429 53.3658C225.429 55.2586 225.01 56.9287 224.172 58.3762C223.357 59.8014 222.244 60.9036 220.834 61.683C219.423 62.4624 217.858 62.8521 216.139 62.8521ZM216.139 60.1799C217.219 60.1799 218.233 59.9238 219.181 59.4117C220.128 58.8995 220.889 58.1312 221.462 57.1069C222.057 56.0826 222.354 54.8355 222.354 53.3658C222.354 51.8961 222.068 50.6491 221.495 49.6248C220.922 48.6004 220.172 47.8433 219.247 47.3534C218.321 46.8412 217.318 46.5852 216.239 46.5852C215.137 46.5852 214.123 46.8412 213.197 47.3534C212.294 47.8433 211.566 48.6004 211.016 49.6248C210.465 50.6491 210.189 51.8961 210.189 53.3658C210.189 54.8578 210.454 56.116 210.982 57.1403C211.533 58.1646 212.261 58.9329 213.164 59.4451C214.068 59.935 215.06 60.1799 216.139 60.1799Z" fill="black"/>
<path d="M232.392 47.2198C232.921 46.1732 233.67 45.3604 234.64 44.7814C235.632 44.2025 236.833 43.913 238.243 43.913V47.0528H237.45C234.078 47.0528 232.392 48.9011 232.392 52.5976V62.5515H229.384V44.247H232.392V47.2198Z" fill="black"/>
<path d="M240.592 53.3324C240.592 51.4619 240.966 49.8252 241.716 48.4223C242.465 46.9971 243.49 45.8948 244.79 45.1155C246.112 44.3361 247.578 43.9464 249.187 43.9464C250.774 43.9464 252.151 44.2915 253.319 44.9819C254.487 45.6722 255.358 46.5406 255.931 47.5872V44.247H258.972V62.5515H255.931V59.1444C255.335 60.2133 254.443 61.104 253.253 61.8166C252.085 62.5069 250.718 62.8521 249.154 62.8521C247.545 62.8521 246.09 62.4513 244.79 61.6496C243.49 60.848 242.465 59.7234 241.716 58.276C240.966 56.8285 240.592 55.1807 240.592 53.3324ZM255.931 53.3658C255.931 51.9852 255.655 50.7827 255.104 49.7584C254.553 48.734 253.804 47.9547 252.856 47.4202C251.931 46.8635 250.906 46.5852 249.782 46.5852C248.658 46.5852 247.633 46.8524 246.707 47.3868C245.782 47.9213 245.044 48.7006 244.493 49.725C243.942 50.7493 243.666 51.9518 243.666 53.3324C243.666 54.7353 243.942 55.9601 244.493 57.0067C245.044 58.031 245.782 58.8216 246.707 59.3783C247.633 59.9127 248.658 60.1799 249.782 60.1799C250.906 60.1799 251.931 59.9127 252.856 59.3783C253.804 58.8216 254.553 58.031 255.104 57.0067C255.655 55.9601 255.931 54.7465 255.931 53.3658Z" fill="black"/>
<path d="M267.064 37.8338V62.5515H264.055V37.8338H267.064Z" fill="black"/>
<path d="M58.1282 65.8917H42.3003L15.8279 25.3947V65.8917H0V0.236084H15.8279L42.3003 40.9201V0.236084H58.1282V65.8917Z" fill="black"/>
<path d="M110.584 0.236084L87.5361 65.8917H67.7281L44.6804 0.236084H61.5265L77.6321 49.8051L93.8302 0.236084H110.584Z" fill="#2653F1"/>
</svg>
