<svg width="165" height="44" viewBox="0 0 165 44" fill="none" xmlns="http://www.w3.org/2000/svg">
<path d="M77.5211 22.1267C76.7549 22.1267 76.0676 21.9976 75.4595 21.7395C74.8513 21.4691 74.3709 21.1004 74.0182 20.6334C73.6654 20.1541 73.4708 19.6072 73.4343 18.9927H75.1493C75.198 19.4966 75.4291 19.9083 75.8426 20.2279C76.2683 20.5474 76.8217 20.7072 77.5029 20.7072C78.1354 20.7072 78.634 20.5658 78.9989 20.2832C79.3638 20.0005 79.5463 19.6441 79.5463 19.2139C79.5463 18.7715 79.3517 18.4458 78.9625 18.2369C78.5732 18.0157 77.9712 17.8006 77.1562 17.5916C76.4143 17.395 75.8061 17.1984 75.3318 17.0017C74.8696 16.7928 74.4682 16.4917 74.1276 16.0984C73.7992 15.6928 73.635 15.1644 73.635 14.513C73.635 13.9968 73.7871 13.5237 74.0911 13.0935C74.3952 12.6634 74.827 12.3254 75.3865 12.0796C75.946 11.8215 76.5846 11.6925 77.3022 11.6925C78.409 11.6925 79.303 11.9751 79.9842 12.5405C80.6653 13.1058 81.0302 13.8801 81.0788 14.8633H79.4186C79.3821 14.3348 79.1692 13.9108 78.78 13.5913C78.403 13.2717 77.8921 13.1119 77.2475 13.1119C76.6515 13.1119 76.1771 13.241 75.8244 13.4991C75.4716 13.7572 75.2953 14.0951 75.2953 14.513C75.2953 14.8448 75.3987 15.1214 75.6054 15.3426C75.8244 15.5515 76.092 15.7236 76.4082 15.8588C76.7366 15.9817 77.1866 16.123 77.7583 16.2828C78.4759 16.4794 79.0598 16.676 79.5098 16.8727C79.9598 17.057 80.343 17.3397 80.6592 17.7207C80.9876 18.1017 81.1579 18.5994 81.1701 19.2139C81.1701 19.767 81.018 20.2647 80.7139 20.7072C80.4099 21.1496 79.9781 21.4999 79.4186 21.758C78.8712 22.0038 78.2387 22.1267 77.5211 22.1267Z" fill="white"/>
<path d="M92.6361 16.5224C92.6361 16.842 92.6179 17.1799 92.5814 17.5363H84.5902C84.651 18.5318 84.9855 19.3123 85.5937 19.8776C86.214 20.4306 86.962 20.7072 87.8378 20.7072C88.5554 20.7072 89.1514 20.5412 89.6257 20.2094C90.1123 19.8653 90.4528 19.4106 90.6474 18.8452H92.4354C92.1678 19.8161 91.6326 20.6088 90.8299 21.2233C90.0271 21.8256 89.0297 22.1267 87.8378 22.1267C86.889 22.1267 86.0376 21.9116 85.2835 21.4814C84.5416 21.0513 83.9577 20.4429 83.532 19.6564C83.1063 18.8575 82.8935 17.9358 82.8935 16.8911C82.8935 15.8465 83.1002 14.9309 83.5138 14.1443C83.9273 13.3577 84.5051 12.7555 85.247 12.3377C86.0011 11.9075 86.8647 11.6925 87.8378 11.6925C88.7865 11.6925 89.6257 11.9014 90.3555 12.3192C91.0853 12.7371 91.6448 13.3147 92.034 14.0521C92.4354 14.7772 92.6361 15.6007 92.6361 16.5224ZM90.9211 16.1722C90.9211 15.5331 90.7812 14.9862 90.5015 14.5314C90.2217 14.0644 89.8386 13.7142 89.3521 13.4806C88.8777 13.2348 88.3486 13.1119 87.7648 13.1119C86.9255 13.1119 86.2079 13.3823 85.6119 13.9231C85.0281 14.4638 84.6936 15.2135 84.6085 16.1722H90.9211Z" fill="white"/>
<path d="M98.9509 11.6925C99.8145 11.6925 100.569 11.8829 101.213 12.2639C101.87 12.6449 102.357 13.1242 102.673 13.7019V11.8584H104.351V22.182C104.351 23.1037 104.157 23.921 103.767 24.6338C103.378 25.3589 102.819 25.9243 102.089 26.3298C101.371 26.7354 100.532 26.9382 99.5712 26.9382C98.2576 26.9382 97.1629 26.6248 96.2872 25.998C95.4114 25.3712 94.8945 24.5171 94.7364 23.4355H96.3784C96.5608 24.05 96.9379 24.5416 97.5096 24.9103C98.0812 25.2913 98.7684 25.4818 99.5712 25.4818C100.483 25.4818 101.225 25.193 101.797 24.6154C102.381 24.0378 102.673 23.2266 102.673 22.182V20.0619C102.344 20.6519 101.858 21.1435 101.213 21.5367C100.569 21.93 99.8145 22.1267 98.9509 22.1267C98.063 22.1267 97.2541 21.9054 96.5244 21.463C95.8067 21.0206 95.2411 20.3999 94.8276 19.6011C94.4141 18.8022 94.2073 17.8928 94.2073 16.8727C94.2073 15.8403 94.4141 14.937 94.8276 14.1627C95.2411 13.3762 95.8067 12.7678 96.5244 12.3377C97.2541 11.9075 98.063 11.6925 98.9509 11.6925ZM102.673 16.8911C102.673 16.1291 102.521 15.4655 102.217 14.9001C101.913 14.3348 101.499 13.9047 100.976 13.6097C100.465 13.3024 99.8996 13.1488 99.2793 13.1488C98.659 13.1488 98.0934 13.2963 97.5825 13.5913C97.0717 13.8862 96.6642 14.3164 96.3602 14.8817C96.0561 15.447 95.904 16.1107 95.904 16.8727C95.904 17.647 96.0561 18.3229 96.3602 18.9005C96.6642 19.4659 97.0717 19.9022 97.5825 20.2094C98.0934 20.5044 98.659 20.6519 99.2793 20.6519C99.8996 20.6519 100.465 20.5044 100.976 20.2094C101.499 19.9022 101.913 19.4659 102.217 18.9005C102.521 18.3229 102.673 17.6531 102.673 16.8911Z" fill="white"/>
<path d="M116.024 11.8584V21.9607H114.364V20.4675C114.047 20.9837 113.603 21.3893 113.032 21.6842C112.472 21.9669 111.852 22.1082 111.171 22.1082C110.392 22.1082 109.693 21.9485 109.073 21.6289C108.452 21.2971 107.96 20.8055 107.595 20.1541C107.242 19.5027 107.066 18.71 107.066 17.776V11.8584H108.708V17.5548C108.708 18.5503 108.957 19.3184 109.456 19.8592C109.954 20.3876 110.636 20.6519 111.499 20.6519C112.387 20.6519 113.087 20.3753 113.597 19.8223C114.108 19.2692 114.364 18.4642 114.364 17.4073V11.8584H116.024Z" fill="white"/>
<path d="M120.487 13.4991C120.779 12.9215 121.193 12.4729 121.728 12.1533C122.275 11.8338 122.938 11.674 123.717 11.674V13.4069H123.279C121.418 13.4069 120.487 14.427 120.487 16.4671V21.9607H118.827V11.8584H120.487V13.4991Z" fill="white"/>
<path d="M126.491 10.2177C126.175 10.2177 125.907 10.107 125.688 9.88582C125.469 9.6646 125.36 9.39422 125.36 9.07468C125.36 8.75514 125.469 8.48476 125.688 8.26354C125.907 8.04232 126.175 7.93171 126.491 7.93171C126.795 7.93171 127.05 8.04232 127.257 8.26354C127.476 8.48476 127.585 8.75514 127.585 9.07468C127.585 9.39422 127.476 9.6646 127.257 9.88582C127.05 10.107 126.795 10.2177 126.491 10.2177ZM127.294 11.8584V21.9607H125.633V11.8584H127.294Z" fill="white"/>
<path d="M129.503 16.8727C129.503 15.8403 129.71 14.937 130.123 14.1627C130.537 13.3762 131.102 12.7678 131.82 12.3377C132.55 11.9075 133.365 11.6925 134.265 11.6925C135.043 11.6925 135.767 11.8768 136.436 12.2455C137.105 12.6019 137.616 13.0751 137.968 13.665V8.31885H139.647V21.9607H137.968V20.0619C137.64 20.6641 137.153 21.1619 136.509 21.5552C135.864 21.9362 135.11 22.1267 134.246 22.1267C133.359 22.1267 132.55 21.9054 131.82 21.463C131.102 21.0206 130.537 20.3999 130.123 19.6011C129.71 18.8022 129.503 17.8928 129.503 16.8727ZM137.968 16.8911C137.968 16.1291 137.816 15.4655 137.512 14.9001C137.208 14.3348 136.795 13.9047 136.272 13.6097C135.761 13.3024 135.195 13.1488 134.575 13.1488C133.955 13.1488 133.389 13.2963 132.878 13.5913C132.367 13.8862 131.96 14.3164 131.656 14.8817C131.352 15.447 131.2 16.1107 131.2 16.8727C131.2 17.647 131.352 18.3229 131.656 18.9005C131.96 19.4659 132.367 19.9022 132.878 20.2094C133.389 20.5044 133.955 20.6519 134.575 20.6519C135.195 20.6519 135.761 20.5044 136.272 20.2094C136.795 19.9022 137.208 19.4659 137.512 18.9005C137.816 18.3229 137.968 17.6531 137.968 16.8911Z" fill="white"/>
<path d="M141.832 16.8727C141.832 15.8403 142.039 14.937 142.453 14.1627C142.866 13.3762 143.432 12.7678 144.149 12.3377C144.879 11.9075 145.688 11.6925 146.576 11.6925C147.452 11.6925 148.212 11.8829 148.856 12.2639C149.501 12.6449 149.982 13.1242 150.298 13.7019V11.8584H151.976V21.9607H150.298V20.0804C149.969 20.6703 149.477 21.1619 148.82 21.5552C148.175 21.9362 147.421 22.1267 146.558 22.1267C145.67 22.1267 144.867 21.9054 144.149 21.463C143.432 21.0206 142.866 20.3999 142.453 19.6011C142.039 18.8022 141.832 17.8928 141.832 16.8727ZM150.298 16.8911C150.298 16.1291 150.146 15.4655 149.842 14.9001C149.538 14.3348 149.124 13.9047 148.601 13.6097C148.09 13.3024 147.525 13.1488 146.904 13.1488C146.284 13.1488 145.718 13.2963 145.207 13.5913C144.697 13.8862 144.289 14.3164 143.985 14.8817C143.681 15.447 143.529 16.1107 143.529 16.8727C143.529 17.647 143.681 18.3229 143.985 18.9005C144.289 19.4659 144.697 19.9022 145.207 20.2094C145.718 20.5044 146.284 20.6519 146.904 20.6519C147.525 20.6519 148.09 20.5044 148.601 20.2094C149.124 19.9022 149.538 19.4659 149.842 18.9005C150.146 18.3229 150.298 17.6531 150.298 16.8911Z" fill="white"/>
<path d="M154.162 16.8727C154.162 15.8403 154.368 14.937 154.782 14.1627C155.195 13.3762 155.761 12.7678 156.479 12.3377C157.208 11.9075 158.023 11.6925 158.923 11.6925C159.702 11.6925 160.426 11.8768 161.095 12.2455C161.764 12.6019 162.274 13.0751 162.627 13.665V8.31885H164.306V21.9607H162.627V20.0619C162.299 20.6641 161.812 21.1619 161.168 21.5552C160.523 21.9362 159.769 22.1267 158.905 22.1267C158.017 22.1267 157.208 21.9054 156.479 21.463C155.761 21.0206 155.195 20.3999 154.782 19.6011C154.368 18.8022 154.162 17.8928 154.162 16.8727ZM162.627 16.8911C162.627 16.1291 162.475 15.4655 162.171 14.9001C161.867 14.3348 161.453 13.9047 160.93 13.6097C160.42 13.3024 159.854 13.1488 159.234 13.1488C158.613 13.1488 158.048 13.2963 157.537 13.5913C157.026 13.8862 156.619 14.3164 156.314 14.8817C156.01 15.447 155.858 16.1107 155.858 16.8727C155.858 17.647 156.01 18.3229 156.314 18.9005C156.619 19.4659 157.026 19.9022 157.537 20.2094C158.048 20.5044 158.613 20.6519 159.234 20.6519C159.854 20.6519 160.42 20.5044 160.93 20.2094C161.453 19.9022 161.867 19.4659 162.171 18.9005C162.475 18.3229 162.627 17.6531 162.627 16.8911Z" fill="white"/>
<path d="M73.3613 33.4826C73.3613 32.438 73.5681 31.5285 73.9817 30.7542C74.3952 29.9677 74.9669 29.3593 75.6967 28.9292C76.4386 28.499 77.2839 28.2839 78.2327 28.2839C79.4611 28.2839 80.4707 28.5851 81.2613 29.1873C82.064 29.7895 82.5931 30.6252 82.8486 31.6944H81.0606C80.8903 31.0799 80.5558 30.5945 80.0571 30.2381C79.5706 29.8816 78.9624 29.7034 78.2327 29.7034C77.2839 29.7034 76.5177 30.0353 75.9338 30.6989C75.35 31.3503 75.0581 32.2782 75.0581 33.4826C75.0581 34.6993 75.35 35.6395 75.9338 36.3032C76.5177 36.9668 77.2839 37.2987 78.2327 37.2987C78.9624 37.2987 79.5706 37.1266 80.0571 36.7825C80.5437 36.4384 80.8781 35.9468 81.0606 35.3077H82.8486C82.581 36.34 82.0458 37.1696 81.243 37.7964C80.4403 38.4109 79.4368 38.7182 78.2327 38.7182C77.2839 38.7182 76.4386 38.5031 75.6967 38.0729C74.9669 37.6428 74.3952 37.0344 73.9817 36.2479C73.5681 35.4613 73.3613 34.5396 73.3613 33.4826Z" fill="white"/>
<path d="M89.4243 38.7182C88.4878 38.7182 87.6364 38.5031 86.8701 38.0729C86.116 37.6428 85.52 37.0344 85.0821 36.2479C84.6564 35.449 84.4435 34.5273 84.4435 33.4826C84.4435 32.4503 84.6625 31.5408 85.1003 30.7542C85.5504 29.9554 86.1585 29.347 86.9248 28.9292C87.6911 28.499 88.5486 28.2839 89.4973 28.2839C90.446 28.2839 91.3035 28.499 92.0698 28.9292C92.8361 29.347 93.4381 29.9492 93.876 30.7358C94.3261 31.5224 94.5511 32.438 94.5511 33.4826C94.5511 34.5273 94.32 35.449 93.8578 36.2479C93.4077 37.0344 92.7935 37.6428 92.0151 38.0729C91.2366 38.5031 90.3731 38.7182 89.4243 38.7182ZM89.4243 37.2434C90.0203 37.2434 90.5798 37.102 91.1028 36.8194C91.6259 36.5367 92.0455 36.1127 92.3617 35.5473C92.6901 34.982 92.8543 34.2938 92.8543 33.4826C92.8543 32.6715 92.6962 31.9832 92.38 31.4179C92.0637 30.8526 91.6502 30.4347 91.1393 30.1643C90.6285 29.8816 90.0751 29.7403 89.4791 29.7403C88.8709 29.7403 88.3114 29.8816 87.8006 30.1643C87.3019 30.4347 86.9005 30.8526 86.5964 31.4179C86.2923 31.9832 86.1403 32.6715 86.1403 33.4826C86.1403 34.306 86.2862 35.0004 86.5782 35.5658C86.8822 36.1311 87.2836 36.5551 87.7823 36.8378C88.281 37.1082 88.8283 37.2434 89.4243 37.2434Z" fill="white"/>
<path d="M98.3943 30.0906C98.6862 29.5129 99.0997 29.0644 99.6349 28.7448C100.182 28.4253 100.845 28.2655 101.624 28.2655V29.9984H101.186C99.3248 29.9984 98.3943 31.0185 98.3943 33.0586V38.5522H96.734V28.4499H98.3943V30.0906Z" fill="white"/>
<path d="M105.2 30.3118C105.529 29.7342 106.015 29.2549 106.66 28.8739C107.317 28.4806 108.077 28.2839 108.941 28.2839C109.828 28.2839 110.631 28.499 111.349 28.9292C112.079 29.3593 112.65 29.9677 113.064 30.7542C113.477 31.5285 113.684 32.4318 113.684 33.4642C113.684 34.4842 113.477 35.3937 113.064 36.1926C112.65 36.9914 112.079 37.6121 111.349 38.0545C110.631 38.4969 109.828 38.7182 108.941 38.7182C108.089 38.7182 107.335 38.5277 106.678 38.1467C106.034 37.7534 105.541 37.2679 105.2 36.6903V43.3453H103.54V28.4499H105.2V30.3118ZM111.987 33.4642C111.987 32.7022 111.835 32.0385 111.531 31.4732C111.227 30.9079 110.814 30.4777 110.291 30.1828C109.78 29.8878 109.214 29.7403 108.594 29.7403C107.986 29.7403 107.42 29.8939 106.897 30.2012C106.386 30.4961 105.973 30.9324 105.657 31.5101C105.352 32.0754 105.2 32.7329 105.2 33.4826C105.2 34.2446 105.352 34.9144 105.657 35.492C105.973 36.0574 106.386 36.4937 106.897 36.8009C107.42 37.0959 107.986 37.2434 108.594 37.2434C109.214 37.2434 109.78 37.0959 110.291 36.8009C110.814 36.4937 111.227 36.0574 111.531 35.492C111.835 34.9144 111.987 34.2384 111.987 33.4642Z" fill="white"/>
<path d="M120.23 38.7182C119.293 38.7182 118.442 38.5031 117.676 38.0729C116.922 37.6428 116.326 37.0344 115.888 36.2479C115.462 35.449 115.249 34.5273 115.249 33.4826C115.249 32.4503 115.468 31.5408 115.906 30.7542C116.356 29.9554 116.964 29.347 117.73 28.9292C118.497 28.499 119.354 28.2839 120.303 28.2839C121.252 28.2839 122.109 28.499 122.875 28.9292C123.642 29.347 124.244 29.9492 124.682 30.7358C125.132 31.5224 125.357 32.438 125.357 33.4826C125.357 34.5273 125.126 35.449 124.663 36.2479C124.213 37.0344 123.599 37.6428 122.821 38.0729C122.042 38.5031 121.179 38.7182 120.23 38.7182ZM120.23 37.2434C120.826 37.2434 121.385 37.102 121.909 36.8194C122.432 36.5367 122.851 36.1127 123.167 35.5473C123.496 34.982 123.66 34.2938 123.66 33.4826C123.66 32.6715 123.502 31.9832 123.186 31.4179C122.869 30.8526 122.456 30.4347 121.945 30.1643C121.434 29.8816 120.881 29.7403 120.285 29.7403C119.677 29.7403 119.117 29.8816 118.606 30.1643C118.108 30.4347 117.706 30.8526 117.402 31.4179C117.098 31.9832 116.946 32.6715 116.946 33.4826C116.946 34.306 117.092 35.0004 117.384 35.5658C117.688 36.1311 118.089 36.5551 118.588 36.8378C119.087 37.1082 119.634 37.2434 120.23 37.2434Z" fill="white"/>
<path d="M129.2 30.0906C129.492 29.5129 129.905 29.0644 130.441 28.7448C130.988 28.4253 131.651 28.2655 132.429 28.2655V29.9984H131.991C130.13 29.9984 129.2 31.0185 129.2 33.0586V38.5522H127.54V28.4499H129.2V30.0906Z" fill="white"/>
<path d="M133.725 33.4642C133.725 32.4318 133.932 31.5285 134.346 30.7542C134.759 29.9677 135.325 29.3593 136.043 28.9292C136.772 28.499 137.581 28.2839 138.469 28.2839C139.345 28.2839 140.105 28.4744 140.75 28.8554C141.394 29.2364 141.875 29.7157 142.191 30.2934V28.4499H143.869V38.5522H142.191V36.6719C141.863 37.2618 141.37 37.7534 140.713 38.1467C140.069 38.5277 139.314 38.7182 138.451 38.7182C137.563 38.7182 136.76 38.4969 136.043 38.0545C135.325 37.6121 134.759 36.9914 134.346 36.1926C133.932 35.3937 133.725 34.4842 133.725 33.4642ZM142.191 33.4826C142.191 32.7206 142.039 32.057 141.735 31.4916C141.431 30.9263 141.017 30.4961 140.494 30.2012C139.983 29.8939 139.418 29.7403 138.797 29.7403C138.177 29.7403 137.612 29.8878 137.101 30.1828C136.59 30.4777 136.182 30.9079 135.878 31.4732C135.574 32.0385 135.422 32.7022 135.422 33.4642C135.422 34.2384 135.574 34.9144 135.878 35.492C136.182 36.0574 136.59 36.4937 137.101 36.8009C137.612 37.0959 138.177 37.2434 138.797 37.2434C139.418 37.2434 139.983 37.0959 140.494 36.8009C141.017 36.4937 141.431 36.0574 141.735 35.492C142.039 34.9144 142.191 34.2446 142.191 33.4826Z" fill="white"/>
<path d="M148.335 24.9103V38.5522H146.675V24.9103H148.335Z" fill="white"/>
<path d="M33.0224 40.3957H24.2869L9.67658 18.0451V40.3957H0.94104V4.15991H9.67658L24.2869 26.6137V4.15991H33.0224V40.3957Z" fill="white"/>
<path d="M61.973 4.15991L49.2529 40.3957H38.3207L25.6005 4.15991H34.898L43.7868 31.5174L52.7267 4.15991H61.973Z" fill="white"/>
<path d="M24.22 1.00659L38.5696 42.3996" stroke="black" stroke-width="2"/>
</svg>
