<svg width="32" height="33" viewBox="0 0 32 33" fill="none" xmlns="http://www.w3.org/2000/svg">
<path d="M22 10.3781V13.3781C22 13.6433 21.8946 13.8976 21.7071 14.0852C21.5196 14.2727 21.2652 14.3781 21 14.3781H20V10.3781H12V14.3781H11C10.7348 14.3781 10.4804 14.2727 10.2929 14.0852C10.1054 13.8976 10 13.6433 10 13.3781V10.3781H6V28.3781H26V10.3781H22ZM10 8.37805C10 6.78675 10.6321 5.26063 11.7574 4.13541C12.8826 3.01019 14.4087 2.37805 16 2.37805C17.5913 2.37805 19.1174 3.01019 20.2426 4.13541C21.3679 5.26063 22 6.78675 22 8.37805H27C27.2652 8.37805 27.5196 8.48341 27.7071 8.67095C27.8946 8.85848 28 9.11284 28 9.37805V29.3781C28 29.6433 27.8946 29.8976 27.7071 30.0852C27.5196 30.2727 27.2652 30.3781 27 30.3781H5C4.73478 30.3781 4.48043 30.2727 4.29289 30.0852C4.10536 29.8976 4 29.6433 4 29.3781V9.37805C4 9.11284 4.10536 8.85848 4.29289 8.67095C4.48043 8.48341 4.73478 8.37805 5 8.37805H10ZM12 8.37805H20C20 7.31719 19.5786 6.29977 18.8284 5.54962C18.0783 4.79948 17.0609 4.37805 16 4.37805C14.9391 4.37805 13.9217 4.79948 13.1716 5.54962C12.4214 6.29977 12 7.31719 12 8.37805Z" fill="black"/>
<path d="M6 22.3781H26V24.3781H6V22.3781Z" fill="black"/>
</svg>
