<svg width="22" height="21" viewBox="0 0 22 21" fill="none" xmlns="http://www.w3.org/2000/svg">
<path d="M21.0953 19.0743L14.5014 12.4804C15.5246 11.1575 16.0781 9.54016 16.0781 7.83899C16.0781 5.80266 15.2834 3.89329 13.8463 2.45364C12.4092 1.01399 10.4947 0.221802 8.46094 0.221802C6.42715 0.221802 4.5127 1.01653 3.07559 2.45364C1.63594 3.89075 0.84375 5.80266 0.84375 7.83899C0.84375 9.87278 1.63848 11.7872 3.07559 13.2243C4.5127 14.664 6.42461 15.4562 8.46094 15.4562C10.1621 15.4562 11.777 14.9027 13.0998 13.882L19.6938 20.4734C19.7131 20.4927 19.736 20.5081 19.7613 20.5185C19.7866 20.529 19.8137 20.5344 19.841 20.5344C19.8684 20.5344 19.8955 20.529 19.9207 20.5185C19.946 20.5081 19.9689 20.4927 19.9883 20.4734L21.0953 19.3689C21.1147 19.3495 21.13 19.3266 21.1405 19.3013C21.1509 19.276 21.1563 19.249 21.1563 19.2216C21.1563 19.1943 21.1509 19.1672 21.1405 19.1419C21.13 19.1166 21.1147 19.0937 21.0953 19.0743ZM12.4828 11.8609C11.4063 12.9349 9.9793 13.5265 8.46094 13.5265C6.94258 13.5265 5.51562 12.9349 4.43906 11.8609C3.36504 10.7843 2.77344 9.35735 2.77344 7.83899C2.77344 6.32063 3.36504 4.89114 4.43906 3.81711C5.51562 2.74309 6.94258 2.15149 8.46094 2.15149C9.9793 2.15149 11.4088 2.74055 12.4828 3.81711C13.5568 4.89368 14.1484 6.32063 14.1484 7.83899C14.1484 9.35735 13.5568 10.7868 12.4828 11.8609Z" fill="black"/>
</svg>
